<?xml version="1.0" encoding="UTF-8" standalone="no"?>
<!-- Created with Inkscape (http://www.inkscape.org/) -->

<svg
   xmlns:dc="http://purl.org/dc/elements/1.1/"
   xmlns:cc="http://creativecommons.org/ns#"
   xmlns:rdf="http://www.w3.org/1999/02/22-rdf-syntax-ns#"
   xmlns:svg="http://www.w3.org/2000/svg"
   xmlns="http://www.w3.org/2000/svg"
   xmlns:sodipodi="http://sodipodi.sourceforge.net/DTD/sodipodi-0.dtd"
   xmlns:inkscape="http://www.inkscape.org/namespaces/inkscape"
   id="svg2"
   version="1.1"
   inkscape:version="0.91 r13725"
   width="16"
   height="16"
   xml:space="preserve"
   sodipodi:docname="jenkins_headshot.svg"><metadata
     id="metadata8"><rdf:RDF><cc:Work
         rdf:about=""><dc:format>image/svg+xml</dc:format><dc:type
           rdf:resource="http://purl.org/dc/dcmitype/StillImage" /><dc:title></dc:title></cc:Work></rdf:RDF></metadata><defs
     id="defs6"><clipPath
       clipPathUnits="userSpaceOnUse"
       id="clipPath18"><path
         d="M 0,2494.84 0,0 l 1804.34,0 0,2494.84 -1804.34,0 z"
         id="path20"
         inkscape:connector-curvature="0" /></clipPath></defs><sodipodi:namedview
     pagecolor="#ffffff"
     bordercolor="#666666"
     borderopacity="1"
     objecttolerance="10"
     gridtolerance="10"
     guidetolerance="10"
     inkscape:pageopacity="0"
     inkscape:pageshadow="2"
     inkscape:window-width="1278"
     inkscape:window-height="733"
     id="namedview4"
     showgrid="false"
     inkscape:zoom="17.095895"
     inkscape:cx="10.045376"
     inkscape:cy="5.6135925"
     inkscape:window-x="0"
     inkscape:window-y="27"
     inkscape:window-maximized="0"
     inkscape:current-layer="g10" /><g
     inkscape:groupmode="layer"
     id="layer1"
     inkscape:label="background"
     style="display:none"
     transform="translate(0,-164)"><path
       inkscape:connector-curvature="0"
       id="path26-6"
       style="display:inline;fill:#231f20;fill-opacity:1;fill-rule:nonzero;stroke:none"
       d="M 21.510285,69.510582 C 3.511457,87.926788 -7.6263961,113.354 -7.6263961,141.48362 l 0,0 c 0,28.12375 11.1378531,53.55425 29.1366811,71.96705 l 0,0 c 18.007502,18.41281 42.824476,29.77463 70.260725,29.77463 l 0,0 c 27.43696,0 52.25569,-11.36182 70.26155,-29.77463 l 0,0 c 17.99766,-18.4128 29.13789,-43.8433 29.13789,-71.96705 l 0,0 c 0,-28.12962 -11.14023,-53.556832 -29.13789,-71.973038 l 0,0 C 144.0267,51.101408 119.20797,39.739596 91.77101,39.737246 l 0,0 c -27.436249,0.0023 -52.253223,11.364162 -70.260725,29.773336 l 0,0 z M 16.954302,217.90489 C -2.174259,198.34219 -14,171.30619 -14,141.48362 l 0,0 c 0,-29.82727 11.825741,-56.860682 30.954303,-76.424675 l 0,0 C 36.078408,45.491433 62.551059,33.362858 91.77101,33.366371 l 0,0 c 29.2202,-0.0038 55.69554,12.125062 74.81636,31.692574 l 0,0 c 19.1302,19.563993 30.95748,46.599755 30.95513,76.424675 l 0,0 c 0.002,29.82257 -11.82493,56.85857 -30.95513,76.42127 l 0,0 c -19.12082,19.56646 -45.59616,31.69351 -74.81636,31.69351 l 0,0 c -29.219951,0 -55.692603,-12.12705 -74.816708,-31.69351 l 0,0" /><path
       inkscape:connector-curvature="0"
       id="path22"
       style="display:inline;fill:#d33833;fill-opacity:1;fill-rule:evenodd;stroke:none"
       d="m 194.35824,141.09204 c 0,57.95078 -45.92914,104.92969 -102.585822,104.92969 -56.655737,0 -102.58493,-46.97891 -102.58493,-104.92969 0,-57.952192 45.929193,-104.9318 102.58493,-104.9318 56.656682,0 102.585822,46.979608 102.585822,104.9318" /><path
       inkscape:connector-curvature="0"
       id="path24"
       style="display:inline;fill:#ef3d3a;fill-opacity:1;fill-rule:nonzero;stroke:none"
       d="m -6.6321341,167.07966 c 0,0 -7.4264859,-109.424481 93.4011831,-112.551302 L 79.735062,42.80427 25.02294,61.172406 9.390504,79.148959 -4.2873155,105.33355 l -7.8166755,30.48264 2.3448186,20.32137" /><path
       inkscape:connector-curvature="0"
       id="path26"
       style="display:inline;fill:#231f20;fill-opacity:1;fill-rule:nonzero;stroke:none"
       d="M 21.510285,69.510582 C 3.511457,87.926788 -7.6263961,113.354 -7.6263961,141.48362 l 0,0 c 0,28.12375 11.1378531,53.55425 29.1366811,71.96705 l 0,0 c 18.007502,18.41281 42.824476,29.77463 70.260725,29.77463 l 0,0 c 27.43696,0 52.25569,-11.36182 70.26155,-29.77463 l 0,0 c 17.99766,-18.4128 29.13789,-43.8433 29.13789,-71.96705 l 0,0 c 0,-28.12962 -11.14023,-53.556832 -29.13789,-71.973038 l 0,0 C 144.0267,51.101408 119.20797,39.739596 91.77101,39.737246 l 0,0 c -27.436249,0.0023 -52.253223,11.364162 -70.260725,29.773336 l 0,0 z M 16.954302,217.90489 C -2.174259,198.34219 -14,171.30619 -14,141.48362 l 0,0 c 0,-29.82727 11.825741,-56.860682 30.954303,-76.424675 l 0,0 C 36.078408,45.491433 62.551059,33.362858 91.77101,33.366371 l 0,0 c 29.2202,-0.0038 55.69554,12.125062 74.81636,31.692574 l 0,0 c 19.1302,19.563993 30.95748,46.599755 30.95513,76.424675 l 0,0 c 0.002,29.82257 -11.82493,56.85857 -30.95513,76.42127 l 0,0 c -19.12082,19.56646 -45.59616,31.69351 -74.81636,31.69351 l 0,0 c -29.219951,0 -55.692603,-12.12705 -74.816708,-31.69351 l 0,0" /></g><g
     id="g10"
     inkscape:groupmode="layer"
     inkscape:label="front"
     transform="matrix(1.25,0,0,-1.25,0,16)"
     style="display:inline;opacity:1"><g
       id="g3573"
       transform="translate(0.51474345,0)"><path
         d="M 9.0939717,2.6608056 7.9740214,2.4928215 6.4621475,2.3248374 5.4821954,2.2968682 4.5303297,2.3248374 3.8023535,2.5488445 3.158403,3.2487503 2.6544511,4.6766155 2.542473,4.9846143 1.8705357,5.2085372 1.4785619,5.8525042 1.1985991,6.776417 1.5066154,7.5883684 2.2344905,7.8403446 2.8224351,7.5603149 3.1024646,6.9444011 3.4384325,7.0004239 3.5503776,7.1403545 3.4384325,7.7843217 3.4103765,8.5962729 3.5783605,9.716139 3.5718305,10.355823 4.082343,11.171974 4.9782694,11.815941 6.5461661,12.487878 8.2819623,12.235902 9.7938189,11.144005 10.49381,10.024138 10.941739,9.212187 11.053675,7.1963776 10.717707,5.4605133 10.101793,3.9206867 9.5138484,3.1087356"
         style="fill:#f0d6b7;fill-opacity:1;fill-rule:evenodd;stroke:none"
         id="path28"
         inkscape:connector-curvature="0" /><path
         d="m 8.1420055,-2.1826808 -4.0036833,-0.1679844 0,-0.6719364 L 4.4742901,-5.3743798 4.3063062,-5.5704169 1.5066154,-4.6184512 1.310578,-4.2824825 1.0306152,-1.1188374 0.38676579,0.78501073 0.2467342,1.2329405 2.4864671,2.7727671 3.1864566,3.0527967 3.8023535,2.296868 4.3342922,1.8208851 4.9502904,1.6249316 5.2302187,1.5409396 5.5661873,0.08510503 l 0.2519761,-0.307982 0.6439841,0.22399 -0.4480138,-0.8679741 2.4357865,-1.14783553 -0.3079147,-0.1679841"
         style="fill:#335061;fill-opacity:1;fill-rule:evenodd;stroke:none"
         id="path30"
         inkscape:connector-curvature="0" /><path
         d="M 1.5066154,7.5883684 2.2344905,7.8403446 2.8224351,7.5603149 3.1024646,6.9444011 3.4384325,7.0004239 3.5224252,7.3363921 3.3544412,7.9802753 3.5224252,9.5201857 3.3823936,10.360106 3.8863462,10.948052 4.9782427,11.815941 4.6702609,12.235902 3.1304169,11.479973 2.4864671,10.976021 2.1225124,10.192123 1.5625539,9.4361937 1.3945699,8.5402502 1.5066154,7.5883682"
         style="fill:#6d6b6d;fill-opacity:1;fill-rule:evenodd;stroke:none"
         id="path32"
         inkscape:connector-curvature="0" /><path
         d="m 2.6544511,10.220092 c 0,0 0.41996,1.035875 2.0998018,1.539827 1.6798411,0.503952 0.083992,0.364021 0.083992,0.364021 L 3.0184726,11.42395 2.3184825,10.724044 2.010568,10.164069 l 0.6438831,0.05602"
         style="fill:#dcd9d8;fill-opacity:1;fill-rule:evenodd;stroke:none"
         id="path34"
         inkscape:connector-curvature="0" /><path
         d="m 1.8145299,7.7843219 c 0,0 -0.587944,1.9598708 1.6518557,2.2398161 L 3.3823936,10.360106 1.8425834,9.9960853 1.3945699,8.5402504 1.5066154,7.5883684 1.8145299,7.7843219"
         style="fill:#dcd9d8;fill-opacity:1;fill-rule:evenodd;stroke:none"
         id="path36"
         inkscape:connector-curvature="0" /><path
         d="m 2.710457,5.1805678 0.3665833,0.3552024 c 0,0 0.1654559,-0.019235 0.1934082,-0.2151876 0.02795,-0.1960375 0.1119451,-1.9598709 1.3158197,-2.911837 0.1098116,-0.086848 -0.895859,0.1400989 -0.895859,0.1400989 L 2.794449,3.9486561"
         style="fill:#f7e4cd;fill-opacity:1;fill-rule:evenodd;stroke:none"
         id="path38"
         inkscape:connector-curvature="0" /><path
         d="m 7.8621438,5.7124895 c 0,0 0.065262,0.8486558 0.2938043,0.7833942 C 8.384491,6.4306217 8.384491,6.2020795 8.384491,6.2020795 c 0,0 -0.5550201,-0.3590663 -0.5223472,-0.48959"
         style="fill:#f7e4cd;fill-opacity:1;fill-rule:evenodd;stroke:none"
         id="path40"
         inkscape:connector-curvature="0" /><path
         d="m 10.185784,8.8201959 c 0,0 -0.4614524,-0.097431 -0.5039523,-0.5039522 -0.042501,-0.4066056 0.5039523,-0.083992 0.5879453,-0.056023"
         style="fill:#f7e4cd;fill-opacity:1;fill-rule:nonzero;stroke:none"
         id="path42"
         inkscape:connector-curvature="0" /><path
         d="m 6.7981157,8.7921427 c 0,0 -0.6159979,-0.083992 -0.6159979,-0.475899 0,-0.3919909 0.7000068,-0.3640216 0.8959603,-0.1960377"
         style="fill:#f7e4cd;fill-opacity:1;fill-rule:nonzero;stroke:none"
         id="path44"
         inkscape:connector-curvature="0" /><path
         d="m 2.9904191,6.9723705 c 0,0 -1.0639442,0.6439673 -1.1758892,0.027969 C 1.7025518,6.3844261 1.4505084,5.9364123 1.9825145,5.2925291 L 1.6185598,5.4044906 1.2825918,6.2723805 1.1706467,7.1123012 1.8145299,7.7843217 2.542473,7.728299 2.962433,7.3923305 2.9904184,6.9723702"
         style="fill:#f7e4cd;fill-opacity:1;fill-rule:evenodd;stroke:none"
         id="path46"
         inkscape:connector-curvature="0" /><path
         d="m 3.4943717,8.7362039 c 0,0 0.4759665,2.4637391 2.8837837,2.9397221 1.9823134,0.391824 3.0236468,-0.08399 3.4156382,-0.531921 0,0 -1.7638336,2.099717 -3.4436917,1.455835 -1.679841,-0.643967 -2.9116694,-1.819857 -2.8837163,-2.575702 0.047677,-1.2874302 0.027985,-1.2879341 0.027985,-1.2879341"
         style="fill:#f7e4cd;fill-opacity:1;fill-rule:evenodd;stroke:none"
         id="path48"
         inkscape:connector-curvature="0" /><path
         d="m 9.9898304,10.86406 c 0,0 -0.8118664,0.02797 -0.8399199,-0.699991 0,0 -8.44e-5,-0.111962 0.055938,-0.2239223 0,0 0.6440517,0.7279583 1.0359585,0.3359683"
         style="fill:#f7e4cd;fill-opacity:1;fill-rule:evenodd;stroke:none"
         id="path50"
         inkscape:connector-curvature="0" /><path
         d="m 6.4345895,9.8643016 c 0,0 -0.139771,1.1173464 -1.092392,0.4677524 C 4.7262661,9.9120932 4.7823057,9.3241488 4.8942508,9.2121871 5.0062288,9.1001413 4.975782,8.874623 5.0610254,9.0294203 c 0.085201,0.1547974 0.057151,0.6587494 0.3651641,0.7986806 0.3079818,0.1400152 0.8128498,0.2964081 1.0084,0.036201"
         style="fill:#f7e4cd;fill-opacity:1;fill-rule:evenodd;stroke:none"
         id="path52"
         inkscape:connector-curvature="0" /><path
         d="M 3.8023535,2.296868 1.1706467,1.1209793 c 0,0 1.0918973,-4.3396188 0.5319051,-5.683492 L 1.310578,-4.4225815 1.2825926,-2.7706927 0.55475053,0.36496673 0.24673497,1.2329405 2.9904198,3.0806821 3.8023542,2.296868"
         style="fill:#49728b;fill-opacity:1;fill-rule:evenodd;stroke:none"
         id="path54"
         inkscape:connector-curvature="0" /><path
         d="m 4.0729677,-0.10339007 0.37337,-0.4555561 0,-1.67984133 -0.4480134,0 c 0,0 -0.055943,1.175889 -0.055943,1.31592053 0,0.1399979 0.055943,0.6439505 0.055943,0.6439505"
         style="fill:#49728b;fill-opacity:1;fill-rule:evenodd;stroke:none"
         id="path56"
         inkscape:connector-curvature="0" /><path
         d="M 4.0823163,-2.490764 2.8224351,-2.5467032 3.1864566,-2.7986793 4.0823163,-2.9386772"
         style="fill:#49728b;fill-opacity:1;fill-rule:evenodd;stroke:none"
         id="path58"
         inkscape:connector-curvature="0" /><path
         d="m 8.3939814,-2.2107343 1.0358744,0.027986 0.2519759,-2.5758013 -1.0639268,-0.1399311 -0.2239235,2.6877462"
         style="fill:#335061;fill-opacity:1;fill-rule:evenodd;stroke:none"
         id="path60"
         inkscape:connector-curvature="0" /><path
         d="m 8.6739268,-2.2107343 1.5678802,0.083992 c 0,0 0.643884,1.62383553 0.643884,1.70782753 0,0.083992 0.559975,2.35176127 0.559975,2.35176127 L 10.185784,3.2486662 9.9338084,3.472673 9.2618718,2.8007365 l 0,-2.60375417 -0.587945,-2.40771663"
         style="fill:#335061;fill-opacity:1;fill-rule:evenodd;stroke:none"
         id="path62"
         inkscape:connector-curvature="0" /><path
         d="m 9.373833,-2.014764 -0.9798516,-0.1959703 0.1399312,-0.783982 c 0.3639376,-0.1679841 0.9799351,0.2800297 0.9799351,0.2800297"
         style="fill:#49728b;fill-opacity:1;fill-rule:evenodd;stroke:none"
         id="path64"
         inkscape:connector-curvature="0" /><path
         d="M 9.4018865,2.8847286 11.361674,1.428894 11.417694,2.1008307 9.9338056,3.472673 9.4018837,2.8847286"
         style="fill:#49728b;fill-opacity:1;fill-rule:evenodd;stroke:none"
         id="path66"
         inkscape:connector-curvature="0" /><path
         d="m 5.053936,-7.7264899 -0.5796459,2.3521101 -0.2882944,1.7355114 -0.047677,1.2882032 2.6234753,0.1396622 1.6321839,2.687e-4 -0.1484137,-2.9399913 0.2519764,-2.2677833 -0.027969,-0.41996 -2.1277375,-0.167983 -1.2879012,0.279962"
         style="fill:#ffffff;fill-opacity:1;fill-rule:evenodd;stroke:none"
         id="path68"
         inkscape:connector-curvature="0" /><path
         d="m 8.02996,-2.1827481 c 0,0 -0.1399308,-2.91177 0.2800296,-4.9835178 0,0 -0.8399206,-0.532008 -2.071866,-0.67194 l 2.3518119,0.08399 0.2799453,0.167984 -0.3359682,4.5915126 -0.083992,0.9800196"
         style="fill:#dcd9d8;fill-opacity:1;fill-rule:evenodd;stroke:none"
         id="path70"
         inkscape:connector-curvature="0" /><path
         d="m 9.7295396,-4.5347949 1.0918974,0.3079819 2.071749,0.1119788 0.307998,0.9518732 -0.559975,1.6518807 -0.643883,0.083992 -0.895944,-0.2799624 -0.859575,-0.4196915 -0.4563282,0.083723 -0.355623,-0.1397292"
         style="fill:#ffffff;fill-opacity:1;fill-rule:evenodd;stroke:none"
         id="path72"
         inkscape:connector-curvature="0" /><path
         d="m 9.7098009,-3.9745674 c 0,0 0.7278761,0.3359005 0.8399221,0.3079144 l -0.307916,1.5399108 0.363939,0.1399308 c 0,0 0.251976,-1.455818 0.251976,-1.623802 0,0 1.567794,-0.083992 1.707811,-0.083992 0,0 0.335968,0.6439503 0.251974,1.315887 l 0.308,-0.8959263 0.02797,-0.5039526 -0.44793,-0.6719366 -0.503954,-0.1119788 -0.839919,0.027985 -0.279946,0.3639203 -0.979934,-0.1399301 -0.307999,-0.1120454"
         style="fill:#dcd9d8;fill-opacity:1;fill-rule:evenodd;stroke:none"
         id="path74"
         inkscape:connector-curvature="0" /><path
         d="m 8.6095892,-1.9870719 -0.6159138,1.56788863 -0.6439669,0.9239125 c 0,0 0.1399306,0.3919912 0.3359681,0.3919912 0.1960374,0 0.643967,0 0.643967,0 L 8.9455574,0.67271333 8.8896189,-0.36317747 8.6095894,-1.9870719"
         style="fill:#ffffff;fill-opacity:1;fill-rule:nonzero;stroke:none"
         id="path76"
         inkscape:connector-curvature="0" /><path
         d="m 8.7299496,-1.4548055 c 0,0 -0.7839817,1.51178993 -0.7839817,1.73578013 0,0 0.1399309,0.3359682 0.3359682,0.2519761 0.1960377,-0.083992 0.6159982,-0.3079149 0.6159982,-0.3079149 l 0,0.5319217 -0.9519664,0.1960374 -0.643883,-0.083992 1.0918965,-2.57578483 0.2239235,-0.028054"
         style="fill:#dcd9d8;fill-opacity:1;fill-rule:evenodd;stroke:none"
         id="path78"
         inkscape:connector-curvature="0" /><path
         d="m 5.3059464,2.2405094 -0.7756167,0.084328 -0.7279762,0.2240071 0,-0.2519765 0.3556898,-0.392243 1.1198833,-0.5039522"
         style="fill:#ffffff;fill-opacity:1;fill-rule:nonzero;stroke:none"
         id="path80"
         inkscape:connector-curvature="0" /><path
         d="m 4.0544306,2.1566012 c 0,0 0.8679741,-0.3640215 1.1479368,-0.2800294 L 5.2302194,1.5409395 4.4464396,1.7085877 3.9704393,2.0445559 4.0544313,2.1566012"
         style="fill:#dcd9d8;fill-opacity:1;fill-rule:evenodd;stroke:none"
         id="path82"
         inkscape:connector-curvature="0" /><path
         d="m 9.7265156,0.80138933 c -0.4750592,0.013943 -0.9042587,0.070385 -1.2800387,0.1763835 0.025533,0.15404127 -0.022258,0.30522697 0.016127,0.41618067 0.1047377,0.075425 0.2802813,0.074249 0.4386069,0.091971 -0.1369078,0.067277 -0.3292494,0.093903 -0.4872384,0.055015 -0.0037,0.106922 -0.051655,0.1731917 -0.080716,0.2568478 0.2670948,0.095331 0.8976227,0.720316 1.2523222,0.5133595 C 9.7545703,2.2127078 9.8263836,1.6504652 9.8394858,1.377071 9.8504058,1.1502925 9.8189098,0.92149803 9.7265168,0.80138933"
         style="fill:#d33833;fill-opacity:1;fill-rule:evenodd;stroke:none"
         id="path84"
         inkscape:connector-curvature="0" /><path
         d="m 9.7265156,0.80138933 c -0.4750592,0.013943 -0.9042587,0.070385 -1.2800387,0.1763835 0.025533,0.15404127 -0.022258,0.30522697 0.016127,0.41618067 0.1047377,0.075425 0.2802813,0.074249 0.4386069,0.091971 -0.1369078,0.067277 -0.3292494,0.093903 -0.4872384,0.055015 -0.0037,0.106922 -0.051655,0.1731917 -0.080716,0.2568478 0.2670948,0.095331 0.8976227,0.720316 1.2523222,0.5133595 C 9.7545703,2.2127078 9.8263836,1.6504652 9.8394858,1.377071 9.8504058,1.1502925 9.8189098,0.92149803 9.7265168,0.80138933 Z"
         style="fill:none;stroke:#d33833;stroke-width:0.17910142;stroke-linecap:butt;stroke-linejoin:miter;stroke-miterlimit:4;stroke-dasharray:none;stroke-opacity:1"
         id="path86"
         inkscape:connector-curvature="0" /><path
         d="m 7.4547824,1.5779799 c -0.00125,-0.035948 -0.00277,-0.072149 -0.0042,-0.1084337 C 7.3022525,1.3721152 7.0627912,1.3732912 6.9000146,1.2913992 7.1399799,1.2809002 7.3288778,1.2231132 7.4923266,1.141641 7.4887166,1.051098 7.4852666,0.96063843 7.4817436,0.87009483 7.2098616,0.68396853 6.961497,0.40679473 6.6413867,0.23225063 6.4900329,0.14970333 5.9588501,-0.06270417 5.7978205,-0.02516827 c -0.091106,0.021159 -0.099312,0.1342194 -0.1357309,0.2407885 -0.077592,0.2282149 -0.256243,0.5914805 -0.2718235,0.93500817 -0.019846,0.4339031 -0.063647,1.1611064 0.403951,1.0717389 C 6.1714592,2.1503863 6.610217,1.9766065 6.9022829,1.8170214 7.0807658,1.7194224 7.183992,1.5988099 7.4547825,1.5779799"
         style="fill:#d33833;fill-opacity:1;fill-rule:evenodd;stroke:none"
         id="path88"
         inkscape:connector-curvature="0" /><path
         d="m 7.4547824,1.5779799 c -0.00125,-0.035948 -0.00277,-0.072149 -0.0042,-0.1084337 C 7.3022525,1.3721152 7.0627912,1.3732912 6.9000146,1.2913992 7.1399799,1.2809002 7.3288778,1.2231132 7.4923266,1.141641 7.4887166,1.051098 7.4852666,0.96063843 7.4817436,0.87009483 7.2098616,0.68396853 6.961497,0.40679473 6.6413867,0.23225063 6.4900329,0.14970363 5.9588501,-0.06270417 5.7978205,-0.02516827 5.7067145,-0.00400927 5.6985085,0.10905113 5.6620898,0.21562023 5.5844978,0.44383513 5.4058469,0.80710073 5.3902663,1.1506284 5.3704203,1.5845315 5.3266203,2.3117348 5.7942174,2.2223673 6.1714592,2.1503863 6.610217,1.9766065 6.9022829,1.8170214 7.0807658,1.7194224 7.183992,1.5988099 7.4547825,1.5779799 Z"
         style="fill:none;stroke:#d33833;stroke-width:0.17910142;stroke-linecap:butt;stroke-linejoin:miter;stroke-miterlimit:4;stroke-dasharray:none;stroke-opacity:1"
         id="path90"
         inkscape:connector-curvature="0" /><path
         d="m 7.7248168,1.0602528 c -0.041492,0.2363538 -0.089451,0.3037994 -0.070889,0.51 0.6303604,0.4202961 0.7487052,-0.72191177 0.070889,-0.51"
         style="fill:#d33833;fill-opacity:1;fill-rule:evenodd;stroke:none"
         id="path92"
         inkscape:connector-curvature="0" /><path
         d="m 7.7248168,1.0602528 c -0.041492,0.2363538 -0.089451,0.3037994 -0.070889,0.51 0.6303604,0.4202961 0.7487052,-0.72191177 0.070889,-0.51 z"
         style="fill:none;stroke:#d33833;stroke-width:0.17910142;stroke-linecap:butt;stroke-linejoin:miter;stroke-miterlimit:4;stroke-dasharray:none;stroke-opacity:1"
         id="path94"
         inkscape:connector-curvature="0" /><path
         d="m 8.6375586,0.86866693 c 0,0 -0.1960374,0.28002967 -0.056023,0.36402167 0.1400152,0.083992 0.2800294,-8.38e-5 0.3640217,0.1399309 0.083992,0.1400147 0,0.2240067 0.027969,0.3919909 0.027969,0.1679841 0.168068,0.1960376 0.3079994,0.2240067 0.1399304,0.027969 0.5320047,0.083992 0.5879439,-0.056023 L 9.7014863,2.4365467 9.3655176,2.5485082 8.3015899,1.9325941 8.2455669,1.6245953 l 0,-0.6159138"
         style="fill:#ef3d3a;fill-opacity:1;fill-rule:evenodd;stroke:none"
         id="path96"
         inkscape:connector-curvature="0" /><path
         d="m 5.6978528,-0.05525407 c -0.033632,0.436935 -0.06923,0.8732738 -0.1088284,1.30978057 -0.059257,0.6517786 0.1565616,0.5380532 0.7215426,0.5380532 0.086293,0 0.5313255,-0.1028902 0.5631583,-0.1679841 C 7.0264228,1.3127331 6.6183893,1.3820266 7.0496048,1.1468488 7.4136262,0.94837543 8.0566694,1.2673773 7.9095995,1.7085877 7.8272875,1.8066907 7.4807361,1.7391607 7.3565116,1.8035827 7.1377965,1.9169721 6.9190811,2.0303615 6.7003405,2.1437506 6.4220578,2.2881332 5.7788889,2.4986173 5.4821954,2.2968682 4.7304326,1.7856086 5.5296404,0.50817313 5.7978205,-0.02516807"
         style="fill:#ef3d3a;fill-opacity:1;fill-rule:evenodd;stroke:none"
         id="path98"
         inkscape:connector-curvature="0" /><path
         d="M 6.4345895,9.8643016 C 5.6715051,10.042029 5.2923308,9.5449638 5.0610254,9.0294203 4.854489,9.0794794 4.9366748,9.3603487 4.9888421,9.5034714 5.1254304,9.8790837 5.6758725,10.379089 6.1256249,10.311308 6.3191676,10.282162 6.5810801,10.10519 6.4345895,9.8643016"
         style="fill:#231f20;fill-opacity:1;fill-rule:evenodd;stroke:none"
         id="path100"
         inkscape:connector-curvature="0" /><path
         d="m 10.152608,8.9953194 c 0.01201,-5.427e-4 0.02419,-9.199e-4 0.0362,-0.00141 C 10.361247,8.6356815 10.5105,8.2562051 10.72804,7.939975 10.582314,7.6005631 9.6245519,7.3002074 9.6393339,7.9096539 9.8464588,8.0001972 10.204013,7.9281312 10.38762,8.0437891 10.281454,8.3351576 10.128252,8.5831862 10.15261,8.9953352"
         style="fill:#231f20;fill-opacity:1;fill-rule:evenodd;stroke:none"
         id="path102"
         inkscape:connector-curvature="0" /><path
         d="M 6.8252618,8.9859964 C 6.9888785,8.6860606 7.0421295,8.3709225 7.2747035,8.1442278 7.3794415,8.0421775 7.5831224,7.9177853 7.482164,7.633976 7.4585633,7.5670345 7.2861264,7.4177805 7.1865957,7.3884673 6.822994,7.2811253 5.9757493,7.366294 6.2626662,7.8195984 6.5633664,7.8055715 6.9675446,7.624317 7.1923074,7.8426129 7.0197035,8.1185268 6.7119902,8.6643912 6.8252618,8.9859969"
         style="fill:#231f20;fill-opacity:1;fill-rule:evenodd;stroke:none"
         id="path104"
         inkscape:connector-curvature="0" /><path
         d="M 10.01612,5.9375883 C 9.4686603,5.5859137 8.8582061,5.2034977 7.9611707,5.2921933 7.7695007,5.4588336 7.6964276,5.8296585 7.8826379,6.0745794 7.9795649,5.9079391 7.9186706,5.601452 8.188789,5.5553405 8.6977814,5.4682405 9.2901774,5.8666991 9.6562979,6.0059578 9.8833286,6.3887097 9.6367327,6.5294804 9.4322076,6.7758292 9.0135068,7.2805375 8.4518518,7.9061104 8.4722624,8.6617031 8.6415058,8.7844156 8.6561205,8.4744008 8.6803942,8.417958 8.899026,7.9062783 9.449258,7.2518963 9.8508241,6.8139615 9.949431,6.7061156 10.111787,6.6026374 10.129846,6.5313282 10.181919,6.3239518 9.9943664,6.0755034 10.01612,5.9375883"
         style="fill:#231f20;fill-opacity:1;fill-rule:evenodd;stroke:none"
         id="path106"
         inkscape:connector-curvature="0" /><path
         d="M 2.7988164,6.3078253 C 2.6272207,6.4057602 2.5863753,6.8371432 2.3849206,6.849406 2.0970208,6.8668763 2.1495153,6.2897671 2.1506663,5.9522868 1.9524954,6.132198 1.9176474,6.6861255 2.0632304,6.9706066 1.8973125,7.0520791 1.8232232,6.8807352 1.7311931,6.8203449 1.8494705,7.6795837 2.9881262,7.2188873 2.7988164,6.3078253"
         style="fill:#231f20;fill-opacity:1;fill-rule:evenodd;stroke:none"
         id="path108"
         inkscape:connector-curvature="0" /><path
         d="M 10.364688,5.5797822 C 10.109856,5.094728 9.7493618,4.5605385 9.0015803,4.5449998 c -0.015202,0.1566454 -0.026879,0.3950147 8.147e-4,0.4893379 0.5716498,0.054931 0.9245845,0.3458794 1.362267,0.5454445"
         style="fill:#231f20;fill-opacity:1;fill-rule:evenodd;stroke:none"
         id="path110"
         inkscape:connector-curvature="0" /><path
         d="M 6.7821405,5.2653159 C 7.259081,5.0145156 8.1356219,4.987554 8.7838728,5.0065363 8.8186456,4.8645057 8.8178057,4.6890462 8.8191498,4.5158546 7.9858644,4.4742787 7.0006377,4.6804789 6.7821407,5.2653159"
         style="fill:#231f20;fill-opacity:1;fill-rule:evenodd;stroke:none"
         id="path112"
         inkscape:connector-curvature="0" /><path
         d="M 6.6914877,4.7976479 C 7.0212995,3.9695703 8.1548561,4.0649011 9.1107695,4.0877471 9.0686896,3.9802371 8.9774743,3.8532412 8.8640853,3.8072974 8.5577662,3.6826534 7.7128899,3.5880783 7.2876382,3.8139323 7.0179397,3.9573067 6.844664,4.2812643 6.6968968,4.4711704 c -0.07136,0.091719 -0.4266882,0.325973 -0.00541,0.3264769"
         style="fill:#231f20;fill-opacity:1;fill-rule:evenodd;stroke:none"
         id="path114"
         inkscape:connector-curvature="0" /><path
         d="M 9.9763082,0.22992423 C 9.5892728,-0.43295817 9.218952,-1.1137894 8.7597676,-1.6984833 c 0.1925096,0.5660307 0.2749052,1.51340263 0.3039671,2.23563353 0.4027415,0.1884784 0.7476135,-0.042416 0.9125735,-0.307226"
         style="fill:#81b0c4;fill-opacity:1;fill-rule:evenodd;stroke:none"
         id="path116"
         inkscape:connector-curvature="0" /><path
         d="m 12.058977,-2.1525361 c -0.433316,-0.086747 -0.737787,-0.5078833 -1.16052,-0.4808548 0.232323,0.3275103 0.639432,0.4655682 1.16052,0.4808548"
         style="fill:#231f20;fill-opacity:1;fill-rule:evenodd;stroke:none"
         id="path118"
         inkscape:connector-curvature="0" /><path
         d="m 12.250141,-2.8306714 c -0.353185,-0.037301 -0.768022,-0.094491 -1.126249,-0.065027 0.169581,0.2590317 0.822954,0.1696557 1.126249,0.065027"
         style="fill:#231f20;fill-opacity:1;fill-rule:evenodd;stroke:none"
         id="path120"
         inkscape:connector-curvature="0" /><path
         d="m 12.372519,-3.4153322 c -0.396949,-0.0086 -0.890316,-6.784e-4 -1.267608,0.03097 0.223166,0.2397047 1.010171,0.088947 1.267608,-0.03097"
         style="fill:#231f20;fill-opacity:1;fill-rule:evenodd;stroke:none"
         id="path122"
         inkscape:connector-curvature="0" /><path
         d="m 9.2294509,-5.0153135 c 0.056947,-0.49851 0.2545792,-1.0036134 0.2298025,-1.5495614 -0.2194715,-0.07401 -0.3455439,-0.138746 -0.6395997,-0.138352 -0.020746,0.463989 -0.082816,1.173294 -0.064255,1.6155959 0.1446342,-0.00958 0.3578903,0.1033191 0.474052,0.072318"
         style="fill:#dcd9d8;fill-opacity:1;fill-rule:evenodd;stroke:none"
         id="path124"
         inkscape:connector-curvature="0" /><path
         d="M 8.5895154,2.3316408 C 8.3902024,2.2015372 8.2204542,2.0390965 8.029036,1.9001735 7.6045403,1.8791745 7.3728902,1.9295705 7.0610277,2.1733157 c 0.00513,0.019571 0.036453,0.010835 0.037628,0.034856 0.4543971,-0.2025048 1.0320105,0.08248 1.4908594,0.1234685"
         style="fill:#f0d6b7;fill-opacity:1;fill-rule:evenodd;stroke:none"
         id="path126"
         inkscape:connector-curvature="0" /><path
         d="m 6.2040987,-0.76581027 c 0.1248456,0.540993 0.6140322,0.821182 1.058258,1.119102 0.4585125,-0.5819138 0.7373661,-1.3302663 1.0444411,-2.05243043 -0.7255234,0.2187073 -1.4668372,0.5735737 -2.1026991,0.93332843"
         style="fill:#81b0c4;fill-opacity:1;fill-rule:evenodd;stroke:none"
         id="path128"
         inkscape:connector-curvature="0" /><path
         d="m 8.7553991,-5.087631 c -0.018562,-0.4423019 0.043508,-1.1516069 0.064255,-1.6155959 0.2940558,-4.07e-4 0.420128,0.06433 0.6395995,0.138352 0.024776,0.545948 -0.1728556,1.0510514 -0.2298018,1.5495614 -0.116162,0.031005 -0.3294181,-0.081892 -0.4740522,-0.072318 z m -4.5787513,2.5154619 c 0.193904,-1.7825635 0.4747481,-3.2810328 0.9898548,-4.8595278 1.1432413,-0.347124 2.5214418,-0.377374 3.5319505,-0.06414 -0.1855385,0.890908 -0.1044862,1.9755484 -0.2129204,2.9262714 -0.081724,0.7145881 -0.040064,1.4335767 -0.1521092,2.1626278 -1.2244362,0.2547313 -2.9551351,0.05955 -4.1567757,-0.1652292 z m 4.4462961,0.1540416 c -0.010331,-0.765571 0.034269,-1.5207436 0.092727,-2.2872722 0.2939725,0.04413 0.493454,0.073594 0.7665958,0.1334717 -0.088695,0.7379463 -0.077776,1.5683168 -0.2584431,2.2210948 -0.2088044,-0.00201 -0.3926637,0.00242 -0.6008797,-0.067294 z m 1.4912791,0.1234011 c -0.1395103,0.031984 -0.301952,0.00125 -0.4352467,-0.00133 0.062656,-0.6240697 0.2146841,-1.3127128 0.2681871,-1.967783 0.2097276,-0.00653 0.3217736,0.092391 0.4942936,0.1256604 0.0092,0.5750179 -0.05023,1.3672313 -0.327234,1.8434663 z m 2.258044,-2.0630885 c 0.437178,0.1061655 0.712085,0.6416148 0.589792,1.1915029 -0.08206,0.3695649 -0.228205,1.0654561 -0.384599,1.3018771 -0.115575,0.1748714 -0.428948,0.403817 -0.679161,0.2435771 -0.407025,-0.260636 -1.124065,-0.336296 -1.420894,-0.651787 0.148834,-0.4955533 0.19503,-1.1762165 0.256428,-1.8041244 0.508489,-0.0317 1.134146,0.1399305 1.557046,-0.042199 -0.295233,-0.095633 -0.678321,-0.096389 -0.933404,-0.2357655 0.208468,-0.1006898 0.696545,-0.080347 1.014792,-0.00309 z m -4.0654692,2.6586762 c -0.307075,0.72216413 -0.5859286,1.47051663 -1.0444411,2.05243043 -0.4442258,-0.29792 -0.9334124,-0.578109 -1.058258,-1.119102 C 6.8399606,-1.125565 7.5812744,-1.4804314 8.3067978,-1.6991387 Z M 9.0637347,0.53715023 C 9.0346727,-0.18508067 8.9522772,-1.1324526 8.7597676,-1.6984833 c 0.4591844,0.5846939 0.8295052,1.26552513 1.2165406,1.92840753 -0.16496,0.2648101 -0.509832,0.4957044 -0.9125735,0.307226 z m -0.8580632,0.3048913 c -0.1739476,0.01873 -0.3216057,-0.1999851 -0.5477962,-0.1054101 -0.051823,-0.057283 -0.098943,-0.1193526 -0.1517735,-0.1752914 0.4995845,-0.6020636 0.7266151,-1.4562544 1.1124747,-2.16378703 0.2070402,0.67964703 0.1831866,1.42425363 0.2287939,2.16605483 -0.2844811,-0.01806 -0.4423018,0.2572678 -0.6416989,0.2784337 z M 7.6539277,1.5702528 c -0.018562,-0.2062006 0.029397,-0.2736462 0.070889,-0.51 0.6778161,-0.21191177 0.5594713,0.9302961 -0.070889,0.51 z M 6.9022827,1.8170214 C 6.6102169,1.9766065 6.1714591,2.1503858 5.7942174,2.2223673 5.3266162,2.3118183 5.3704188,1.5845315 5.3902656,1.1506284 5.4058416,0.80710073 5.5844976,0.44383513 5.6620891,0.21562023 c 0.03642,-0.1065691 0.044622,-0.2196307 0.1357314,-0.2407885 0.1610295,-0.037536 0.6922123,0.1748716 0.843566,0.2574189 0.3201105,0.1745441 0.568475,0.4517179 0.8403574,0.6378442 0.00353,0.090544 0.00697,0.18100287 0.010583,0.27154617 -0.1634484,0.081472 -0.3523467,0.139259 -0.592312,0.1497582 0.1627767,0.081892 0.4022379,0.080716 0.5505679,0.178147 0.00144,0.036285 0.00294,0.072485 0.0042,0.1084337 -0.2707902,0.02083 -0.3740167,0.1414426 -0.5524997,0.2390415 z M 4.1126037,2.3237457 C 3.8702025,2.077649 4.7924773,1.7421844 5.0861224,1.7241261 c -0.00162,0.1557213 0.088746,0.3025394 0.070537,0.4142491 -0.3487605,0.06123 -0.807105,0.02083 -1.0440552,0.1853705 z M 7.0986561,2.2081724 C 7.0974861,2.1841514 7.0661511,2.1928864 7.0610281,2.1733164 7.3728906,1.9295713 7.6045407,1.8791763 8.0290364,1.9001742 8.2204546,2.0390972 8.3902029,2.2015379 8.5895159,2.3316415 8.130667,2.2906535 7.5530536,2.0056683 7.0986565,2.2081731 Z M 9.8394846,1.377071 C 9.8263806,1.6504652 9.7545696,2.212708 9.5855774,2.3111468 9.2308786,2.5181872 8.6003503,1.8931184 8.3332555,1.7977873 8.3623165,1.7141313 8.4102765,1.6478615 8.4139715,1.5409395 8.5719604,1.5798275 8.764302,1.5532025 8.9012099,1.4859245 8.7428842,1.4682015 8.5673406,1.4693765 8.462603,1.3939535 8.424219,1.2829999 8.472013,1.1318141 8.446475,0.97777293 8.822255,0.87177473 9.2514542,0.81533223 9.7265141,0.80138943 9.8189051,0.92149813 9.850402,1.1502926 9.8394831,1.3770711 Z M 3.7045198,2.085712 C 3.6283978,2.139971 3.1134593,2.8099757 3.0429143,2.7821742 2.1111314,2.4147089 1.2398728,1.7793089 0.46130875,1.1783457 1.2036225,-0.41448817 1.5032726,-2.3659602 1.5562208,-4.246853 c 0.8503528,-0.3977197 1.5972607,-0.9710663 2.751169,-1.0309354 -0.1335307,0.9447426 -0.2554199,1.7876197 -0.3312143,2.6770789 -0.2899322,0.1222167 -0.7058948,-0.00554 -0.9772225,0.037897 -0.00232,0.326973 0.4143832,0.1431813 0.4490886,0.3630644 0.026152,0.1663127 -0.2292646,0.1789114 -0.1460956,0.4407987 0.2121138,-0.077105 0.3235034,-0.2474153 0.5497194,-0.311367 0.2067049,0.4522134 -0.00288,1.25233853 0.026904,1.63030303 0.00562,0.070965 0.035436,0.3931583 0.1943998,0.3366233 0.1406868,-0.050034 -0.00804,-0.8568787 0.00738,-1.21460113 0.014045,-0.3295764 -0.039805,-0.6484773 0.093668,-0.855375 1.1150278,0.1517735 2.2480978,0.2498763 3.4545432,0.2829778 -0.265415,0.1138846 -0.5807211,0.2216633 -0.9264159,0.4165167 -0.1874031,0.1056451 -0.778136,0.325469 -0.8322102,0.50346513 -0.086285,0.2836327 0.2263839,0.4347177 0.2798617,0.6778748 -0.5628384,-0.3069656 -0.67265,0.2942329 -0.8057944,0.7201567 C 5.2233639,0.81340043 5.1546918,1.1015771 5.1250933,1.3240723 4.640241,1.5552184 4.1218505,1.7893042 3.7045184,2.0857122 Z M 9.3470394,2.7011219 C 10.123379,3.0775744 10.263308,1.2941709 9.9590058,0.71966513 10.006044,0.54832123 10.16781,0.48272343 10.233828,0.32868203 9.8005965,-0.44739637 9.3194065,-1.171828 8.8773555,-1.9387764 c 0.3288294,0.2046972 0.7985132,0.036612 1.1854645,0.1898304 0.141442,0.055939 0.24383,0.3797368 0.350919,0.6387682 0.29456,0.71265603 0.603819,1.61112753 0.741399,2.2912114 0.03107,0.1549653 0.115741,0.4926133 0.09676,0.6305282 -0.03385,0.2469369 -0.368894,0.4300396 -0.539312,0.5827371 -0.313963,0.2820454 -0.511681,0.530242 -0.8391658,0.793977 C 9.7406263,2.9922385 9.4556409,2.860539 9.3470394,2.7011219 Z M 1.9290368,9.5857837 C 1.55911,9.1787578 1.6365428,8.4161103 1.6813271,7.8735215 2.3499799,8.2941537 3.2374735,7.8402606 3.2291081,7.1248162 3.5483452,7.1332989 3.3483687,7.5235263 3.2906268,7.7749147 3.101914,8.5960212 3.6085542,9.488101 3.313598,10.23899 2.7409067,10.195566 2.2704164,9.9616486 1.9290396,9.5857837 Z m 2.646901,2.3623613 C 3.738478,11.710783 2.6651769,11.102261 2.3210443,10.349943 c 0.2664729,0.03872 0.4514574,0.173108 0.7143277,0.189738 0.099346,0.0065 0.2294998,-0.04166 0.3436788,-0.01327 0.2275342,0.05644 0.4195653,0.566611 0.59122,0.756433 0.1673287,0.185371 0.3684478,0.264575 0.5060854,0.433568 0.088427,0.04267 0.2191695,0.03973 0.2241921,0.172519 -0.038323,0.04099 -0.078684,0.07223 -0.1246105,0.05922 z M 8.9353944,11.724894 C 8.0661607,12.215323 6.5948633,12.584217 5.6702284,12.123269 4.9241435,11.751268 3.915642,11.135773 3.5718038,10.355823 3.8930065,9.6031701 3.4766577,8.9135113 3.4500824,8.1493512 3.4359739,7.7427457 3.6415257,7.3877952 3.657274,6.9451571 3.547362,6.7638183 3.2115535,6.7414765 2.9790971,6.7539072 2.9008504,7.1454783 2.7638673,7.5855967 2.3606467,7.6297764 1.7900881,7.6921827 1.3729169,7.219979 1.3469969,6.7265255 1.3163218,6.1462246 1.792709,5.1844316 2.4679294,5.2512051 2.7287672,5.2769903 2.7928443,5.538458 3.0770403,5.5357702 3.2310731,5.2284433 2.8394349,5.1319364 2.7991444,4.9121292 2.7886454,4.8553508 2.8316243,4.6334436 2.856618,4.5293773 2.9792628,4.0226533 3.2526657,3.366843 3.5217679,2.9810675 3.8633132,2.4917298 4.5343341,2.4179848 5.2562377,2.3700253 5.3851742,2.6477868 5.8601573,2.6249411 6.1696514,2.5522881 5.7987423,2.6991901 5.4539129,3.0553164 5.1681382,3.3705387 4.8398804,3.7322085 4.5073641,4.120168 4.4905659,4.5928753 5.1108893,3.7322927 5.6233751,2.9807315 6.7513635,2.6021792 7.6048743,2.3159345 8.6016922,2.7333748 9.2575016,3.1939035 9.5296361,3.3853214 9.6920771,3.6890367 9.8855113,3.9670504 10.609271,5.0081322 10.947002,6.4941199 10.872754,7.9344157 10.842174,8.5284077 10.843524,9.1203832 10.644212,9.5200177 10.435912,9.9378784 9.7313852,10.311727 9.3189844,9.9337625 9.242551,10.340117 9.6619238,10.591421 10.154538,10.44519 9.8032827,10.898496 9.434641,11.443184 8.9353923,11.724894 Z M 10.554846,-1.6774853 c 0.679244,0.3376732 1.948363,0.90888653 2.374204,-0.00125 0.15715,-0.3354812 0.341511,-0.9025874 0.422899,-1.2488949 0.114986,-0.4885651 -0.124644,-1.5154695 -0.626831,-1.6794133 -0.443564,-0.1447804 -0.961122,-0.1359613 -1.495395,-0.028638 -0.06291,0.052326 -0.13296,0.1435422 -0.181927,0.2386216 -0.381492,0.014797 -0.73871,-0.020478 -1.040075,-0.1772989 0.02856,-0.2821292 -0.162272,-0.3274094 -0.3411756,-0.385515 -0.1326233,-0.5258662 0.265331,-1.2126011 0.1700838,-1.6921121 -0.067951,-0.341613 -0.4882457,-0.394435 -0.7971689,-0.458344 -0.010078,-0.18984 0.013522,-0.348307 0.034605,-0.508909 -0.070638,-0.260277 -0.3874555,-0.408444 -0.6876428,-0.444731 -0.9876628,-0.11877 -2.4872822,-0.172118 -3.4372832,0.169492 -0.2650957,0.650246 -0.4739335,1.441123 -0.6947406,2.183631 -0.9265328,-0.09895 -1.6759022,0.3997856 -2.382351,0.7265313 -0.244593,0.1133897 -0.582955,0.1758543 -0.67433,0.3705476 -0.088587,0.1884952 -0.052333,0.5497532 -0.074317,0.891005 -0.055936,0.8715858 -0.1038387,1.7122626 -0.33400225,2.6046783 -0.10334439,0.40046563 -0.28347339,0.75382873 -0.40913376,1.13969673 -0.11614464,0.3576298 -0.31906926,0.7995961 -0.3719929,1.15622637 -0.0784736,0.528562 0.419238,0.5579593 0.73749263,0.7870056 C 1.2377401,2.3190388 1.6239103,2.5149081 2.1567304,2.8345819 2.3145434,2.9292409 2.7904509,3.1688704 2.8445839,3.279236 2.9521946,3.4980352 2.6598684,3.8065382 2.5817136,3.9780501 2.4580856,4.2492604 2.3936139,4.4796505 2.3758999,4.7472495 1.9289355,4.8178863 1.5901115,5.0838891 1.385448,5.3838248 1.0468929,5.8802179 0.81210144,6.798587 1.1050239,7.497149 1.127995,7.552164 1.242561,7.6603457 1.2594597,7.7448416 1.2927964,7.9112301 1.196726,8.1324652 1.1907568,8.3094364 1.1599834,9.2173907 1.344378,9.999693 1.9556133,10.273507 c 0.2481381,0.988503 1.1362532,1.317164 1.9729911,1.808434 0.3127776,0.183607 0.6575653,0.300944 1.0136498,0.431971 1.2773681,0.470104 3.2372138,0.381576 4.297362,-0.420212 0.4495247,-0.34 1.1680778,-1.057881 1.4250928,-1.577624 C 11.343534,9.1438973 11.295322,6.8506621 10.820515,5.1814879 10.756679,4.9573971 10.664122,4.6279802 10.534858,4.3587856 10.444734,4.1708113 10.164621,3.7946948 10.198637,3.6287267 10.233659,3.4571307 10.837314,2.998786 10.966746,2.8739737 11.199824,2.6491271 11.642629,2.3507031 11.678494,2.066978 11.717054,1.7650266 11.545451,1.3519535 11.458518,1.0605848 11.167906,0.08821723 10.884349,-0.81059867 10.554848,-1.6774892"
         style="fill:#231f20;fill-opacity:1;fill-rule:evenodd;stroke:none"
         id="path130"
         inkscape:connector-curvature="0" /><path
         d="m 6.0232218,5.0534877 c 0.036847,0.049051 0.2394444,0.1235523 0.5229178,-0.012933 0,0 -0.3359685,-0.056023 -0.308016,-0.6161659 l -0.1399978,0.028053 c 0,0 -0.1446846,0.5079002 -0.074904,0.6010473"
         style="fill:#f7e4cd;fill-opacity:1;fill-rule:evenodd;stroke:none"
         id="path132"
         inkscape:connector-curvature="0" /><path
         d="m 8.4779738,0.23897833 c 0,-0.085008 -0.068958,-0.1539407 -0.1540416,-0.1539407 -0.085,0 -0.1539575,0.068933 -0.1539575,0.1539407 0,0.085 0.068958,0.1540416 0.1539575,0.1540416 0.085084,0 0.1540416,-0.069041 0.1540416,-0.1540416"
         style="fill:#1d1919;fill-opacity:1;fill-rule:evenodd;stroke:none"
         id="path134"
         inkscape:connector-curvature="0" /><path
         d="m 8.6319313,-0.47495407 c 0,-0.085008 -0.068958,-0.1539407 -0.1540417,-0.1539407 -0.085,0 -0.1539574,0.068933 -0.1539574,0.1539407 0,0.085008 0.068958,0.1540413 0.1539574,0.1540413 0.085084,0 0.1540417,-0.069033 0.1540417,-0.1540413"
         style="fill:#1d1919;fill-opacity:1;fill-rule:evenodd;stroke:none"
         id="path136"
         inkscape:connector-curvature="0" /></g></g></svg>